# xmcd
#
# Track frame offsets: 
#        150
#        18050
#        31869
#        45045
#        58855
#        72290
#        86987
#        100457
#        118130
#        133947
#        148090
#        165032
#        181242
#        194892
#
# Disc length: 2804 seconds
#
# Revision: 2
# Processed by: cddbd v1.5.2PL0 Copyright (c) Steve Scherf et al.
# Submitted via: ExactAudioCopy v1.3
#
DISCID=c20af20e
DTITLE=Various Artist - Greatest Hits Of The 70's - Garden Party
DYEAR=1997
DGENRE=Pop
TTITLE0=Rick Nelson - Garden Party
TTITLE1=The New Seekers - Never Ending Song Of Love
TTITLE2=Middel Of The Road - Soley, Soley
TTITLE3=Christie - Yellow River
TTITLE4=The Rubettes - Foe-Dee-O.Dee
TTITLE5=The Marmalade - Rainbow
TTITLE6=George McCrae - I Can't Leave You Alone
TTITLE7=Village People - Ready For The 80's
TTITLE8=First Class - Bobby Dazzler
TTITLE9=Mott The Hoople - Roll Away The Stone
TTITLE10=Paper Lace - Billy, Don't Be A Hero
TTITLE11=Harold Melvin and The Blue Notes - If You Don't Know Me By Now
TTITLE12=Vanity Rair - Will You Still Love Me Tomorrow
TTITLE13=Roger Whittaker - The Last Farewell (Live)
EXTD=
EXTT0=
EXTT1=
EXTT2=
EXTT3=
EXTT4=
EXTT5=
EXTT6=
EXTT7=
EXTT8=
EXTT9=
EXTT10=
EXTT11=
EXTT12=
EXTT13=
PLAYORDER=
